<svg width="29.967041" height="28.928558" viewBox="0 0 29.967 28.9286" fill="none" xmlns="http://www.w3.org/2000/svg" xmlns:xlink="http://www.w3.org/1999/xlink">
	<desc>
			Created with Pixso.
	</desc>
	<defs/>
	<path id="Vector" d="M29.96 7.13C29.92 6.82 29.72 6.54 29.42 6.41L15.37 0.08C15.12 -0.03 14.83 -0.03 14.58 0.08L0.54 6.41C0.24 6.54 0.04 6.82 0 7.13C0 7.14 0 7.22 0 7.23L0 22.6C0 22.97 0.23 23.3 0.58 23.43L14.63 28.86C14.74 28.9 14.86 28.92 14.98 28.92C15.1 28.92 15.21 28.9 15.33 28.86L29.37 23.43C29.73 23.3 29.96 22.97 29.96 22.6L29.96 7.23C29.96 7.22 29.96 7.14 29.96 7.13ZM14.98 1.9L26.67 7.16L22.17 8.9L10.26 4.02L14.98 1.9ZM7.97 5.05L19.7 9.85L14.98 11.68L3.29 7.16L7.97 5.05ZM1.87 8.56L14.04 13.26L14.04 26.68L1.87 21.98L1.87 8.56ZM15.92 26.68L15.92 13.26L28.09 8.56L28.09 21.98L15.92 26.68Z" fill="#0A143A" fill-opacity="1.000000" fill-rule="nonzero"/>
</svg>
